<svg id="visual" viewBox="0 0 900 600" width="900" height="600" xmlns="http://www.w3.org/2000/svg" xmlns:xlink="http://www.w3.org/1999/xlink" version="1.1"><rect x="0" y="0" width="900" height="600" fill="#040020"></rect><defs><linearGradient id="grad1_0" x1="33.3%" y1="100%" x2="100%" y2="0%"><stop offset="20%" stop-color="#fbae3c" stop-opacity="1"></stop><stop offset="80%" stop-color="#fbae3c" stop-opacity="1"></stop></linearGradient></defs><defs><linearGradient id="grad1_1" x1="33.3%" y1="100%" x2="100%" y2="0%"><stop offset="20%" stop-color="#fbae3c" stop-opacity="1"></stop><stop offset="80%" stop-color="#ef8447" stop-opacity="1"></stop></linearGradient></defs><defs><linearGradient id="grad1_2" x1="33.3%" y1="100%" x2="100%" y2="0%"><stop offset="20%" stop-color="#d56052" stop-opacity="1"></stop><stop offset="80%" stop-color="#ef8447" stop-opacity="1"></stop></linearGradient></defs><defs><linearGradient id="grad1_3" x1="33.3%" y1="100%" x2="100%" y2="0%"><stop offset="20%" stop-color="#d56052" stop-opacity="1"></stop><stop offset="80%" stop-color="#b04458" stop-opacity="1"></stop></linearGradient></defs><defs><linearGradient id="grad1_4" x1="33.3%" y1="100%" x2="100%" y2="0%"><stop offset="20%" stop-color="#853156" stop-opacity="1"></stop><stop offset="80%" stop-color="#b04458" stop-opacity="1"></stop></linearGradient></defs><defs><linearGradient id="grad1_5" x1="33.3%" y1="100%" x2="100%" y2="0%"><stop offset="20%" stop-color="#853156" stop-opacity="1"></stop><stop offset="80%" stop-color="#56234c" stop-opacity="1"></stop></linearGradient></defs><defs><linearGradient id="grad1_6" x1="33.3%" y1="100%" x2="100%" y2="0%"><stop offset="20%" stop-color="#2b1739" stop-opacity="1"></stop><stop offset="80%" stop-color="#56234c" stop-opacity="1"></stop></linearGradient></defs><defs><linearGradient id="grad1_7" x1="33.3%" y1="100%" x2="100%" y2="0%"><stop offset="20%" stop-color="#2b1739" stop-opacity="1"></stop><stop offset="80%" stop-color="#040020" stop-opacity="1"></stop></linearGradient></defs><defs><linearGradient id="grad2_0" x1="0%" y1="100%" x2="66.7%" y2="0%"><stop offset="20%" stop-color="#fbae3c" stop-opacity="1"></stop><stop offset="80%" stop-color="#fbae3c" stop-opacity="1"></stop></linearGradient></defs><defs><linearGradient id="grad2_1" x1="0%" y1="100%" x2="66.7%" y2="0%"><stop offset="20%" stop-color="#ef8447" stop-opacity="1"></stop><stop offset="80%" stop-color="#fbae3c" stop-opacity="1"></stop></linearGradient></defs><defs><linearGradient id="grad2_2" x1="0%" y1="100%" x2="66.7%" y2="0%"><stop offset="20%" stop-color="#ef8447" stop-opacity="1"></stop><stop offset="80%" stop-color="#d56052" stop-opacity="1"></stop></linearGradient></defs><defs><linearGradient id="grad2_3" x1="0%" y1="100%" x2="66.7%" y2="0%"><stop offset="20%" stop-color="#b04458" stop-opacity="1"></stop><stop offset="80%" stop-color="#d56052" stop-opacity="1"></stop></linearGradient></defs><defs><linearGradient id="grad2_4" x1="0%" y1="100%" x2="66.7%" y2="0%"><stop offset="20%" stop-color="#b04458" stop-opacity="1"></stop><stop offset="80%" stop-color="#853156" stop-opacity="1"></stop></linearGradient></defs><defs><linearGradient id="grad2_5" x1="0%" y1="100%" x2="66.7%" y2="0%"><stop offset="20%" stop-color="#56234c" stop-opacity="1"></stop><stop offset="80%" stop-color="#853156" stop-opacity="1"></stop></linearGradient></defs><defs><linearGradient id="grad2_6" x1="0%" y1="100%" x2="66.7%" y2="0%"><stop offset="20%" stop-color="#56234c" stop-opacity="1"></stop><stop offset="80%" stop-color="#2b1739" stop-opacity="1"></stop></linearGradient></defs><defs><linearGradient id="grad2_7" x1="0%" y1="100%" x2="66.7%" y2="0%"><stop offset="20%" stop-color="#040020" stop-opacity="1"></stop><stop offset="80%" stop-color="#2b1739" stop-opacity="1"></stop></linearGradient></defs><g transform="translate(900, 600)"><path d="M-517 0C-516.6 -20.4 -516.2 -40.8 -520.2 -63.2C-524.2 -85.5 -532.6 -109.8 -525.1 -129.4C-517.6 -149.1 -494.1 -164 -484.3 -183.7C-474.6 -203.3 -478.7 -227.7 -472.8 -248.2C-467 -268.6 -451.3 -285.2 -436.2 -301.1C-421 -316.9 -406.5 -332.1 -391.5 -346.8C-376.5 -361.5 -361.1 -375.7 -346.2 -390.7C-331.2 -405.7 -316.7 -421.4 -299.9 -434.5C-283.2 -447.7 -264.2 -458.2 -244 -464.9C-223.8 -471.6 -202.5 -474.4 -183 -482.5C-163.5 -490.5 -145.9 -503.8 -126.4 -512.7C-106.9 -521.6 -85.5 -526.1 -64.1 -528.1C-42.8 -530.1 -21.4 -529.6 0 -529L0 0Z" fill="#170f2d"></path><path d="M-452.4 0C-452 -17.9 -451.6 -35.7 -455.2 -55.3C-458.7 -74.8 -466.1 -96.1 -459.5 -113.3C-452.9 -130.4 -432.3 -143.5 -423.8 -160.7C-415.3 -177.9 -418.8 -199.2 -413.7 -217.1C-408.6 -235 -394.9 -249.6 -381.7 -263.4C-368.4 -277.3 -355.7 -290.6 -342.5 -303.5C-329.4 -316.3 -316 -328.8 -302.9 -341.9C-289.8 -355 -277.1 -368.7 -262.4 -380.2C-247.8 -391.7 -231.1 -400.9 -213.5 -406.8C-195.8 -412.6 -177.2 -415.1 -160.1 -422.2C-143.1 -429.2 -127.6 -440.8 -110.6 -448.6C-93.5 -456.4 -74.8 -460.4 -56.1 -462.1C-37.4 -463.9 -18.7 -463.4 0 -462.9L0 0Z" fill="#401d44"></path><path d="M-387.7 0C-387.4 -15.3 -387.1 -30.6 -390.1 -47.4C-393.1 -64.1 -399.5 -82.4 -393.8 -97.1C-388.2 -111.8 -370.6 -123 -363.3 -137.8C-356 -152.5 -359 -170.8 -354.6 -186.1C-350.3 -201.5 -338.5 -213.9 -327.1 -225.8C-315.8 -237.7 -304.8 -249.1 -293.6 -260.1C-282.4 -271.1 -270.8 -281.8 -259.6 -293C-248.4 -304.3 -237.5 -316.1 -225 -325.9C-212.4 -335.7 -198.1 -343.6 -183 -348.6C-167.9 -353.7 -151.8 -355.8 -137.2 -361.9C-122.6 -367.9 -109.4 -377.8 -94.8 -384.5C-80.1 -391.2 -64.1 -394.6 -48.1 -396.1C-32.1 -397.6 -16 -397.2 0 -396.7L0 0Z" fill="#6e2952"></path><path d="M-323.1 0C-322.9 -12.8 -322.6 -25.5 -325.1 -39.5C-327.6 -53.4 -332.9 -68.6 -328.2 -80.9C-323.5 -93.2 -308.8 -102.5 -302.7 -114.8C-296.6 -127.1 -299.2 -142.3 -295.5 -155.1C-291.9 -167.9 -282.1 -178.3 -272.6 -188.2C-263.2 -198.1 -254 -207.6 -244.7 -216.8C-235.3 -225.9 -225.7 -234.8 -216.3 -244.2C-207 -253.6 -197.9 -263.4 -187.5 -271.6C-177 -279.8 -165.1 -286.4 -152.5 -290.5C-139.9 -294.7 -126.5 -296.5 -114.4 -301.5C-102.2 -306.6 -91.2 -314.8 -79 -320.4C-66.8 -326 -53.4 -328.8 -40.1 -330.1C-26.7 -331.3 -13.4 -331 0 -330.6L0 0Z" fill="#9b3958"></path><path d="M-258.5 0C-258.3 -10.2 -258.1 -20.4 -260.1 -31.6C-262.1 -42.8 -266.3 -54.9 -262.6 -64.7C-258.8 -74.5 -247 -82 -242.2 -91.8C-237.3 -101.7 -239.3 -113.8 -236.4 -124.1C-233.5 -134.3 -225.7 -142.6 -218.1 -150.5C-210.5 -158.5 -203.2 -166.1 -195.7 -173.4C-188.2 -180.8 -180.5 -187.9 -173.1 -195.4C-165.6 -202.8 -158.3 -210.7 -150 -217.3C-141.6 -223.8 -132.1 -229.1 -122 -232.4C-111.9 -235.8 -101.2 -237.2 -91.5 -241.2C-81.7 -245.3 -72.9 -251.9 -63.2 -256.3C-53.4 -260.8 -42.7 -263.1 -32.1 -264.1C-21.4 -265.1 -10.7 -264.8 0 -264.5L0 0Z" fill="#c45155"></path><path d="M-193.9 0C-193.7 -7.7 -193.6 -15.3 -195.1 -23.7C-196.6 -32.1 -199.7 -41.2 -196.9 -48.5C-194.1 -55.9 -185.3 -61.5 -181.6 -68.9C-178 -76.3 -179.5 -85.4 -177.3 -93.1C-175.1 -100.7 -169.2 -107 -163.6 -112.9C-157.9 -118.9 -152.4 -124.5 -146.8 -130.1C-141.2 -135.6 -135.4 -140.9 -129.8 -146.5C-124.2 -152.1 -118.8 -158 -112.5 -163C-106.2 -167.9 -99.1 -171.8 -91.5 -174.3C-83.9 -176.8 -75.9 -177.9 -68.6 -180.9C-61.3 -183.9 -54.7 -188.9 -47.4 -192.2C-40.1 -195.6 -32.1 -197.3 -24 -198C-16 -198.8 -8 -198.6 0 -198.4L0 0Z" fill="#e3714d"></path><path d="M-129.2 0C-129.1 -5.1 -129 -10.2 -130 -15.8C-131 -21.4 -133.2 -27.5 -131.3 -32.4C-129.4 -37.3 -123.5 -41 -121.1 -45.9C-118.7 -50.8 -119.7 -56.9 -118.2 -62C-116.8 -67.2 -112.8 -71.3 -109 -75.3C-105.3 -79.2 -101.6 -83 -97.9 -86.7C-94.1 -90.4 -90.3 -93.9 -86.5 -97.7C-82.8 -101.4 -79.2 -105.4 -75 -108.6C-70.8 -111.9 -66 -114.5 -61 -116.2C-56 -117.9 -50.6 -118.6 -45.7 -120.6C-40.9 -122.6 -36.5 -125.9 -31.6 -128.2C-26.7 -130.4 -21.4 -131.5 -16 -132C-10.7 -132.5 -5.3 -132.4 0 -132.2L0 0Z" fill="#f79841"></path><path d="M-64.6 0C-64.6 -2.6 -64.5 -5.1 -65 -7.9C-65.5 -10.7 -66.6 -13.7 -65.6 -16.2C-64.7 -18.6 -61.8 -20.5 -60.5 -23C-59.3 -25.4 -59.8 -28.5 -59.1 -31C-58.4 -33.6 -56.4 -35.7 -54.5 -37.6C-52.6 -39.6 -50.8 -41.5 -48.9 -43.4C-47.1 -45.2 -45.1 -47 -43.3 -48.8C-41.4 -50.7 -39.6 -52.7 -37.5 -54.3C-35.4 -56 -33 -57.3 -30.5 -58.1C-28 -58.9 -25.3 -59.3 -22.9 -60.3C-20.4 -61.3 -18.2 -63 -15.8 -64.1C-13.4 -65.2 -10.7 -65.8 -8 -66C-5.3 -66.3 -2.7 -66.2 0 -66.1L0 0Z" fill="#fbae3c"></path></g><g transform="translate(0, 0)"><path d="M529 0C526.7 21.2 524.4 42.3 522.2 63.4C520 84.5 517.8 105.5 514.6 126.8C511.4 148.2 507 169.8 496.5 188.3C486 206.8 469.3 222.1 458.7 240.7C448 259.4 443.4 281.4 431.2 297.7C419 314 399.2 324.6 387.7 343.5C376.2 362.4 373.1 389.5 358.6 404.8C344.2 420.2 318.5 423.7 296.5 429.6C274.6 435.5 256.4 443.7 239.3 456C222.3 468.3 206.4 484.8 187.9 495.6C169.5 506.3 148.4 511.3 127.3 516.5C106.3 521.8 85.2 527.3 64 527.1C42.8 526.9 21.4 521 0 515L0 0Z" fill="#170f2d"></path><path d="M462.9 0C460.9 18.5 458.8 37 456.9 55.5C455 73.9 453.1 92.3 450.3 111C447.4 129.6 443.6 148.6 434.4 164.8C425.2 180.9 410.6 194.3 401.3 210.6C392 227 388 246.2 377.3 260.5C366.7 274.7 349.3 284 339.3 300.6C329.2 317.1 326.4 340.8 313.8 354.2C301.2 367.6 278.7 370.8 259.5 375.9C240.3 381 224.3 388.2 209.4 399C194.5 409.8 180.6 424.2 164.4 433.6C148.3 443 129.8 447.4 111.4 452C93 456.6 74.6 461.4 56 461.2C37.4 461.1 18.7 455.8 0 450.6L0 0Z" fill="#401d44"></path><path d="M396.8 0C395 15.9 393.3 31.7 391.6 47.6C390 63.4 388.4 79.1 385.9 95.1C383.5 111.1 380.3 127.4 372.4 141.2C364.5 155.1 352 166.6 344 180.5C336 194.5 332.6 211 323.4 223.2C314.3 235.5 299.4 243.5 290.8 257.6C282.2 271.8 279.8 292.1 269 303.6C258.2 315.1 238.9 317.8 222.4 322.2C205.9 326.6 192.3 332.8 179.5 342C166.7 351.3 154.8 363.6 141 371.7C127.1 379.7 111.3 383.5 95.5 387.4C79.7 391.4 63.9 395.5 48 395.3C32.1 395.2 16 390.7 0 386.3L0 0Z" fill="#6e2952"></path><path d="M330.6 0C329.2 13.2 327.7 26.4 326.4 39.6C325 52.8 323.6 65.9 321.6 79.3C319.6 92.6 316.9 106.1 310.3 117.7C303.7 129.2 293.3 138.8 286.7 150.5C280 162.1 277.2 175.8 269.5 186C261.9 196.2 249.5 202.9 242.3 214.7C235.1 226.5 233.2 243.4 224.1 253C215.1 262.6 199.1 264.8 185.3 268.5C171.6 272.2 160.2 277.3 149.6 285C138.9 292.7 129 303 117.5 309.7C105.9 316.4 92.7 319.5 79.6 322.8C66.4 326.1 53.3 329.6 40 329.5C26.7 329.3 13.4 325.6 0 321.9L0 0Z" fill="#9b3958"></path><path d="M264.5 0C263.3 10.6 262.2 21.2 261.1 31.7C260 42.2 258.9 52.8 257.3 63.4C255.7 74.1 253.5 84.9 248.2 94.1C243 103.4 234.6 111 229.3 120.4C224 129.7 221.7 140.7 215.6 148.8C209.5 157 199.6 162.3 193.9 171.7C188.1 181.2 186.5 194.7 179.3 202.4C172.1 210.1 159.2 211.9 148.3 214.8C137.3 217.7 128.2 221.8 119.7 228C111.1 234.2 103.2 242.4 94 247.8C84.7 253.1 74.2 255.6 63.7 258.3C53.1 260.9 42.6 263.7 32 263.6C21.4 263.5 10.7 260.5 0 257.5L0 0Z" fill="#c45155"></path><path d="M198.4 0C197.5 7.9 196.6 15.9 195.8 23.8C195 31.7 194.2 39.6 193 47.6C191.8 55.6 190.1 63.7 186.2 70.6C182.2 77.5 176 83.3 172 90.3C168 97.3 166.3 105.5 161.7 111.6C157.1 117.7 149.7 121.7 145.4 128.8C141.1 135.9 139.9 146.1 134.5 151.8C129.1 157.6 119.4 158.9 111.2 161.1C103 163.3 96.1 166.4 89.7 171C83.4 175.6 77.4 181.8 70.5 185.8C63.5 189.9 55.6 191.7 47.7 193.7C39.8 195.7 32 197.8 24 197.7C16 197.6 8 195.4 0 193.1L0 0Z" fill="#e3714d"></path><path d="M132.3 0C131.7 5.3 131.1 10.6 130.5 15.9C130 21.1 129.5 26.4 128.6 31.7C127.8 37 126.8 42.5 124.1 47.1C121.5 51.7 117.3 55.5 114.7 60.2C112 64.8 110.9 70.3 107.8 74.4C104.8 78.5 99.8 81.2 96.9 85.9C94.1 90.6 93.3 97.4 89.7 101.2C86.1 105 79.6 105.9 74.1 107.4C68.6 108.9 64.1 110.9 59.8 114C55.6 117.1 51.6 121.2 47 123.9C42.4 126.6 37.1 127.8 31.8 129.1C26.6 130.5 21.3 131.8 16 131.8C10.7 131.7 5.3 130.2 0 128.8L0 0Z" fill="#f79841"></path><path d="M66.1 0C65.8 2.6 65.5 5.3 65.3 7.9C65 10.6 64.7 13.2 64.3 15.9C63.9 18.5 63.4 21.2 62.1 23.5C60.7 25.8 58.7 27.8 57.3 30.1C56 32.4 55.4 35.2 53.9 37.2C52.4 39.2 49.9 40.6 48.5 42.9C47 45.3 46.6 48.7 44.8 50.6C43 52.5 39.8 53 37.1 53.7C34.3 54.4 32 55.5 29.9 57C27.8 58.5 25.8 60.6 23.5 61.9C21.2 63.3 18.5 63.9 15.9 64.6C13.3 65.2 10.7 65.9 8 65.9C5.3 65.9 2.7 65.1 0 64.4L0 0Z" fill="#fbae3c"></path></g></svg>