<svg id="visual" viewBox="0 0 600 900" width="600" height="900" xmlns="http://www.w3.org/2000/svg" xmlns:xlink="http://www.w3.org/1999/xlink" version="1.1"><g transform="translate(292.4859431914672 469.67163412464936)"><path d="M81.1 -141.1C123.8 -115.7 190.1 -131.9 219.1 -115.3C248.2 -98.7 240.1 -49.3 224.1 -9.3C208.1 30.8 184.1 61.7 158.2 83.8C132.3 105.8 104.4 119.2 77.7 137.8C51 156.3 25.5 180.2 -5.5 189.7C-36.5 199.2 -73 194.4 -83.8 166.7C-94.7 138.9 -79.8 88.2 -106.4 56.6C-133 25 -201 12.5 -218.6 -10.2C-236.2 -32.8 -203.4 -65.7 -168.3 -82.6C-133.2 -99.4 -95.9 -100.4 -67.4 -134C-39 -167.5 -19.5 -233.8 -0.2 -233.5C19.2 -233.2 38.3 -166.4 81.1 -141.1" fill="#BB004B"></path></g></svg>