<svg id="visual" viewBox="0 0 900 600" width="900" height="600" xmlns="http://www.w3.org/2000/svg" xmlns:xlink="http://www.w3.org/1999/xlink" version="1.1"><g fill="#ffffff"><circle r="41" cx="491" cy="441"></circle><circle r="3" cx="610" cy="168"></circle><circle r="25" cx="334" cy="310"></circle><circle r="16" cx="794" cy="402"></circle><circle r="15" cx="89" cy="320"></circle><circle r="37" cx="316" cy="444"></circle><circle r="21" cx="475" cy="35"></circle><circle r="30" cx="125" cy="209"></circle><circle r="31" cx="110" cy="18"></circle><circle r="13" cx="152" cy="419"></circle><circle r="12" cx="429" cy="184"></circle><circle r="9" cx="229" cy="340"></circle><circle r="17" cx="600" cy="335"></circle><circle r="33" cx="648" cy="520"></circle><circle r="13" cx="558" cy="39"></circle><circle r="10" cx="829" cy="168"></circle><circle r="35" cx="238" cy="81"></circle><circle r="36" cx="41" cy="71"></circle><circle r="11" cx="746" cy="573"></circle><circle r="8" cx="686" cy="378"></circle><circle r="25" cx="835" cy="479"></circle><circle r="24" cx="355" cy="119"></circle><circle r="8" cx="427" cy="307"></circle><circle r="30" cx="511" cy="532"></circle><circle r="5" cx="426" cy="543"></circle><circle r="21" cx="817" cy="251"></circle><circle r="35" cx="884" cy="34"></circle><circle r="8" cx="321" cy="13"></circle><circle r="17" cx="644" cy="90"></circle><circle r="23" cx="752" cy="59"></circle><circle r="35" cx="677" cy="273"></circle><circle r="28" cx="576" cy="434"></circle><circle r="18" cx="239" cy="516"></circle><circle r="32" cx="518" cy="303"></circle><circle r="35" cx="334" cy="578"></circle><circle r="24" cx="20" cy="582"></circle><circle r="27" cx="222" cy="595"></circle><circle r="11" cx="137" cy="534"></circle><circle r="4" cx="193" cy="148"></circle><circle r="4" cx="188" cy="260"></circle><circle r="32" cx="2" cy="302"></circle><circle r="26" cx="533" cy="219"></circle><circle r="32" cx="28" cy="406"></circle><circle r="31" cx="882" cy="556"></circle><circle r="38" cx="332" cy="203"></circle><circle r="22" cx="15" cy="209"></circle><circle r="24" cx="881" cy="399"></circle><circle r="6" cx="719" cy="464"></circle><circle r="13" cx="400" cy="438"></circle><circle r="7" cx="498" cy="120"></circle><circle r="22" cx="723" cy="155"></circle><circle r="35" cx="679" cy="2"></circle><circle r="5" cx="756" cy="303"></circle><circle r="3" cx="112" cy="119"></circle><circle r="4" cx="36" cy="499"></circle><circle r="38" cx="891" cy="296"></circle><circle r="32" cx="199" cy="1"></circle><circle r="13" cx="898" cy="119"></circle><circle r="2" cx="603" cy="589"></circle></g></svg>