<svg id="visual" viewBox="0 0 600 900" width="600" height="900" xmlns="http://www.w3.org/2000/svg" xmlns:xlink="http://www.w3.org/1999/xlink" version="1.1"><rect x="0" y="0" width="600" height="900" fill="#001220"></rect><defs><linearGradient id="grad1_0" x1="0%" y1="0%" x2="100%" y2="100%"><stop offset="30%" stop-color="#001220" stop-opacity="1"></stop><stop offset="70%" stop-color="#001220" stop-opacity="1"></stop></linearGradient></defs><defs><linearGradient id="grad2_0" x1="0%" y1="0%" x2="100%" y2="100%"><stop offset="30%" stop-color="#001220" stop-opacity="1"></stop><stop offset="70%" stop-color="#001220" stop-opacity="1"></stop></linearGradient></defs><g transform="translate(600, 0)"><path d="M0 459.7C-37.1 437.3 -74.2 415 -105.6 394.1C-137 373.2 -162.7 353.9 -199.5 345.5C-236.3 337.2 -284.2 339.9 -323.1 323.1C-362.1 306.4 -391.9 270.4 -398.1 229.9C-404.3 189.3 -386.8 144.4 -393.1 105.3C-399.4 66.3 -429.6 33.1 -459.7 0L0 0Z" fill="#FBAE3C"></path></g><g transform="translate(0, 900)"><path d="M0 -459.7C36.9 -444.8 73.8 -430 113.1 -422.1C152.4 -414.2 194.1 -413.4 229.9 -398.1C265.6 -382.8 295.5 -353.1 321.7 -321.7C348 -290.3 370.5 -257.2 383.6 -221.5C396.8 -185.8 400.4 -147.6 411.5 -110.3C422.6 -72.9 441.1 -36.5 459.7 0L0 0Z" fill="#FBAE3C"></path></g></svg>