<svg id="visual" viewBox="0 0 900 600" width="900" height="600" xmlns="http://www.w3.org/2000/svg" xmlns:xlink="http://www.w3.org/1999/xlink" version="1.1"><path d="M0 432L21.5 425C43 418 86 404 128.8 406.7C171.7 409.3 214.3 428.7 257.2 425.7C300 422.7 343 397.3 385.8 381.8C428.7 366.3 471.3 360.7 514.2 362.2C557 363.7 600 372.3 642.8 373.2C685.7 374 728.3 367 771.2 366.3C814 365.7 857 371.3 878.5 374.2L900 377L900 601L878.5 601C857 601 814 601 771.2 601C728.3 601 685.7 601 642.8 601C600 601 557 601 514.2 601C471.3 601 428.7 601 385.8 601C343 601 300 601 257.2 601C214.3 601 171.7 601 128.8 601C86 601 43 601 21.5 601L0 601Z" fill="#fa7268"></path><path d="M0 394L21.5 395C43 396 86 398 128.8 402.5C171.7 407 214.3 414 257.2 418.2C300 422.3 343 423.7 385.8 430C428.7 436.3 471.3 447.7 514.2 443.5C557 439.3 600 419.7 642.8 411.7C685.7 403.7 728.3 407.3 771.2 411.2C814 415 857 419 878.5 421L900 423L900 601L878.5 601C857 601 814 601 771.2 601C728.3 601 685.7 601 642.8 601C600 601 557 601 514.2 601C471.3 601 428.7 601 385.8 601C343 601 300 601 257.2 601C214.3 601 171.7 601 128.8 601C86 601 43 601 21.5 601L0 601Z" fill="#ef5f67"></path><path d="M0 504L21.5 497.5C43 491 86 478 128.8 474.7C171.7 471.3 214.3 477.7 257.2 478.8C300 480 343 476 385.8 471.7C428.7 467.3 471.3 462.7 514.2 461.2C557 459.7 600 461.3 642.8 469.8C685.7 478.3 728.3 493.7 771.2 496C814 498.3 857 487.7 878.5 482.3L900 477L900 601L878.5 601C857 601 814 601 771.2 601C728.3 601 685.7 601 642.8 601C600 601 557 601 514.2 601C471.3 601 428.7 601 385.8 601C343 601 300 601 257.2 601C214.3 601 171.7 601 128.8 601C86 601 43 601 21.5 601L0 601Z" fill="#e34c67"></path><path d="M0 483L21.5 482.8C43 482.7 86 482.3 128.8 485.5C171.7 488.7 214.3 495.3 257.2 495.7C300 496 343 490 385.8 490.2C428.7 490.3 471.3 496.7 514.2 498.3C557 500 600 497 642.8 502.8C685.7 508.7 728.3 523.3 771.2 523.5C814 523.7 857 509.3 878.5 502.2L900 495L900 601L878.5 601C857 601 814 601 771.2 601C728.3 601 685.7 601 642.8 601C600 601 557 601 514.2 601C471.3 601 428.7 601 385.8 601C343 601 300 601 257.2 601C214.3 601 171.7 601 128.8 601C86 601 43 601 21.5 601L0 601Z" fill="#d53867"></path><path d="M0 532L21.5 531.3C43 530.7 86 529.3 128.8 530.8C171.7 532.3 214.3 536.7 257.2 540.7C300 544.7 343 548.3 385.8 547.2C428.7 546 471.3 540 514.2 540C557 540 600 546 642.8 547.5C685.7 549 728.3 546 771.2 544.8C814 543.7 857 544.3 878.5 544.7L900 545L900 601L878.5 601C857 601 814 601 771.2 601C728.3 601 685.7 601 642.8 601C600 601 557 601 514.2 601C471.3 601 428.7 601 385.8 601C343 601 300 601 257.2 601C214.3 601 171.7 601 128.8 601C86 601 43 601 21.5 601L0 601Z" fill="#c62368"></path></svg>