<svg id="visual" viewBox="0 0 900 600" width="900" height="600" xmlns="http://www.w3.org/2000/svg" xmlns:xlink="http://www.w3.org/1999/xlink" version="1.1"><path d="M0 377L21.5 374C43 371 86 365 128.8 362C171.7 359 214.3 359 257.2 372.7C300 386.3 343 413.7 385.8 415.5C428.7 417.3 471.3 393.7 514.2 388.2C557 382.7 600 395.3 642.8 403.8C685.7 412.3 728.3 416.7 771.2 423.2C814 429.7 857 438.3 878.5 442.7L900 447L900 601L878.5 601C857 601 814 601 771.2 601C728.3 601 685.7 601 642.8 601C600 601 557 601 514.2 601C471.3 601 428.7 601 385.8 601C343 601 300 601 257.2 601C214.3 601 171.7 601 128.8 601C86 601 43 601 21.5 601L0 601Z" fill="#0006a9"></path><path d="M0 394L21.5 402.5C43 411 86 428 128.8 436.7C171.7 445.3 214.3 445.7 257.2 442.8C300 440 343 434 385.8 426C428.7 418 471.3 408 514.2 414.3C557 420.7 600 443.3 642.8 446C685.7 448.7 728.3 431.3 771.2 430.8C814 430.3 857 446.7 878.5 454.8L900 463L900 601L878.5 601C857 601 814 601 771.2 601C728.3 601 685.7 601 642.8 601C600 601 557 601 514.2 601C471.3 601 428.7 601 385.8 601C343 601 300 601 257.2 601C214.3 601 171.7 601 128.8 601C86 601 43 601 21.5 601L0 601Z" fill="#001c8b"></path><path d="M0 492L21.5 489.8C43 487.7 86 483.3 128.8 477C171.7 470.7 214.3 462.3 257.2 467.5C300 472.7 343 491.3 385.8 500.3C428.7 509.3 471.3 508.7 514.2 499.7C557 490.7 600 473.3 642.8 465.2C685.7 457 728.3 458 771.2 456.5C814 455 857 451 878.5 449L900 447L900 601L878.5 601C857 601 814 601 771.2 601C728.3 601 685.7 601 642.8 601C600 601 557 601 514.2 601C471.3 601 428.7 601 385.8 601C343 601 300 601 257.2 601C214.3 601 171.7 601 128.8 601C86 601 43 601 21.5 601L0 601Z" fill="#00216b"></path><path d="M0 501L21.5 500.8C43 500.7 86 500.3 128.8 501.7C171.7 503 214.3 506 257.2 512.2C300 518.3 343 527.7 385.8 529.5C428.7 531.3 471.3 525.7 514.2 525C557 524.3 600 528.7 642.8 527.3C685.7 526 728.3 519 771.2 510.3C814 501.7 857 491.3 878.5 486.2L900 481L900 601L878.5 601C857 601 814 601 771.2 601C728.3 601 685.7 601 642.8 601C600 601 557 601 514.2 601C471.3 601 428.7 601 385.8 601C343 601 300 601 257.2 601C214.3 601 171.7 601 128.8 601C86 601 43 601 21.5 601L0 601Z" fill="#001d47"></path><path d="M0 544L21.5 545.2C43 546.3 86 548.7 128.8 549C171.7 549.3 214.3 547.7 257.2 548.3C300 549 343 552 385.8 553.5C428.7 555 471.3 555 514.2 551.3C557 547.7 600 540.3 642.8 539.5C685.7 538.7 728.3 544.3 771.2 547.5C814 550.7 857 551.3 878.5 551.7L900 552L900 601L878.5 601C857 601 814 601 771.2 601C728.3 601 685.7 601 642.8 601C600 601 557 601 514.2 601C471.3 601 428.7 601 385.8 601C343 601 300 601 257.2 601C214.3 601 171.7 601 128.8 601C86 601 43 601 21.5 601L0 601Z" fill="#001220"></path></svg>