<svg id="visual" viewBox="0 0 600 900" width="600" height="900" xmlns="http://www.w3.org/2000/svg" xmlns:xlink="http://www.w3.org/1999/xlink" version="1.1"><path d="M434 900L427 878.5C420 857 406 814 408.7 771.2C411.3 728.3 430.7 685.7 427.7 642.8C424.7 600 399.3 557 383.8 514.2C368.3 471.3 362.7 428.7 364.2 385.8C365.7 343 374.3 300 375.2 257.2C376 214.3 369 171.7 368.3 128.8C367.7 86 373.3 43 376.2 21.5L379 0L600 0L600 21.5C600 43 600 86 600 128.8C600 171.7 600 214.3 600 257.2C600 300 600 343 600 385.8C600 428.7 600 471.3 600 514.2C600 557 600 600 600 642.8C600 685.7 600 728.3 600 771.2C600 814 600 857 600 878.5L600 900Z" fill="#fa7268"></path><path d="M396 900L397 878.5C398 857 400 814 404.5 771.2C409 728.3 416 685.7 420.2 642.8C424.3 600 425.7 557 432 514.2C438.3 471.3 449.7 428.7 445.5 385.8C441.3 343 421.7 300 413.7 257.2C405.7 214.3 409.3 171.7 413.2 128.8C417 86 421 43 423 21.5L425 0L600 0L600 21.5C600 43 600 86 600 128.8C600 171.7 600 214.3 600 257.2C600 300 600 343 600 385.8C600 428.7 600 471.3 600 514.2C600 557 600 600 600 642.8C600 685.7 600 728.3 600 771.2C600 814 600 857 600 878.5L600 900Z" fill="#ef5f67"></path><path d="M506 900L499.5 878.5C493 857 480 814 476.7 771.2C473.3 728.3 479.7 685.7 480.8 642.8C482 600 478 557 473.7 514.2C469.3 471.3 464.7 428.7 463.2 385.8C461.7 343 463.3 300 471.8 257.2C480.3 214.3 495.7 171.7 498 128.8C500.3 86 489.7 43 484.3 21.5L479 0L600 0L600 21.5C600 43 600 86 600 128.8C600 171.7 600 214.3 600 257.2C600 300 600 343 600 385.8C600 428.7 600 471.3 600 514.2C600 557 600 600 600 642.8C600 685.7 600 728.3 600 771.2C600 814 600 857 600 878.5L600 900Z" fill="#e34c67"></path><path d="M485 900L484.8 878.5C484.7 857 484.3 814 487.5 771.2C490.7 728.3 497.3 685.7 497.7 642.8C498 600 492 557 492.2 514.2C492.3 471.3 498.7 428.7 500.3 385.8C502 343 499 300 504.8 257.2C510.7 214.3 525.3 171.7 525.5 128.8C525.7 86 511.3 43 504.2 21.5L497 0L600 0L600 21.5C600 43 600 86 600 128.8C600 171.7 600 214.3 600 257.2C600 300 600 343 600 385.8C600 428.7 600 471.3 600 514.2C600 557 600 600 600 642.8C600 685.7 600 728.3 600 771.2C600 814 600 857 600 878.5L600 900Z" fill="#d53867"></path><path d="M534 900L533.3 878.5C532.7 857 531.3 814 532.8 771.2C534.3 728.3 538.7 685.7 542.7 642.8C546.7 600 550.3 557 549.2 514.2C548 471.3 542 428.7 542 385.8C542 343 548 300 549.5 257.2C551 214.3 548 171.7 546.8 128.8C545.7 86 546.3 43 546.7 21.5L547 0L600 0L600 21.5C600 43 600 86 600 128.8C600 171.7 600 214.3 600 257.2C600 300 600 343 600 385.8C600 428.7 600 471.3 600 514.2C600 557 600 600 600 642.8C600 685.7 600 728.3 600 771.2C600 814 600 857 600 878.5L600 900Z" fill="#c62368"></path></svg>