<svg id="visual" viewBox="0 0 600 900" width="600" height="900" xmlns="http://www.w3.org/2000/svg" xmlns:xlink="http://www.w3.org/1999/xlink" version="1.1"><path d="M0 742L14.3 729.7C28.7 717.3 57.3 692.7 85.8 687C114.3 681.3 142.7 694.7 171.2 699.2C199.7 703.7 228.3 699.3 257 678C285.7 656.7 314.3 618.3 343 600.8C371.7 583.3 400.3 586.7 428.8 593.7C457.3 600.7 485.7 611.3 514.2 625.5C542.7 639.7 571.3 657.3 585.7 666.2L600 675L600 901L585.7 901C571.3 901 542.7 901 514.2 901C485.7 901 457.3 901 428.8 901C400.3 901 371.7 901 343 901C314.3 901 285.7 901 257 901C228.3 901 199.7 901 171.2 901C142.7 901 114.3 901 85.8 901C57.3 901 28.7 901 14.3 901L0 901Z" fill="#0066FF" stroke-linecap="round" stroke-linejoin="miter"></path></svg>